<svg width="35" height="45" viewBox="0 0 35 45" fill="none" xmlns="http://www.w3.org/2000/svg">
<path d="M6.00249 29.2181C4.025 27.3915 2.51665 25.1154 1.60509 22.5824C0.693522 20.0494 0.405575 17.3341 0.765613 14.6663C1.12161 11.9611 2.12824 9.38265 3.69922 7.15184C5.27019 4.92103 7.35867 3.10442 9.78563 1.8577C12.2126 0.61098 14.9057 -0.028659 17.634 -0.00639615C20.3624 0.0158667 23.0447 0.699368 25.451 1.98552C27.8573 3.27168 29.9158 5.12213 31.4502 7.37828C32.9846 9.63443 33.949 12.229 34.2608 14.9396C34.5726 17.6501 34.2225 20.3959 33.2405 22.9415C32.2585 25.4871 30.6739 27.7567 28.6225 29.5556C27.3015 30.6913 26.2759 32.1306 25.6337 33.75H19.375V20.28C20.4679 19.8936 21.4148 19.1789 22.0861 18.2338C22.7573 17.2887 23.1202 16.1592 23.125 15C23.125 14.5027 22.9274 14.0258 22.5758 13.6742C22.2242 13.3225 21.7473 13.125 21.25 13.125C20.7527 13.125 20.2758 13.3225 19.9242 13.6742C19.5725 14.0258 19.375 14.5027 19.375 15C19.375 15.4973 19.1774 15.9742 18.8258 16.3258C18.4742 16.6775 17.9973 16.875 17.5 16.875C17.0027 16.875 16.5258 16.6775 16.1742 16.3258C15.8225 15.9742 15.625 15.4973 15.625 15C15.625 14.5027 15.4274 14.0258 15.0758 13.6742C14.7242 13.3225 14.2473 13.125 13.75 13.125C13.2527 13.125 12.7758 13.3225 12.4242 13.6742C12.0725 14.0258 11.875 14.5027 11.875 15C11.8798 16.1592 12.2426 17.2887 12.9139 18.2338C13.5852 19.1789 14.532 19.8936 15.625 20.28V33.75H9.18061C8.4638 32.026 7.37915 30.4794 6.00249 29.2181ZM9.99999 37.5V38.0813C10.002 39.9156 10.7315 41.6743 12.0286 42.9714C13.3257 44.2684 15.0844 44.998 16.9187 45H18.0812C19.9156 44.998 21.6743 44.2684 22.9713 42.9714C24.2684 41.6743 24.998 39.9156 25 38.0813V37.5H9.99999Z" fill="white"/>
</svg>
