<svg width="40" height="40" viewBox="0 0 40 40" fill="none" xmlns="http://www.w3.org/2000/svg">
<path fill-rule="evenodd" clip-rule="evenodd" d="M37.32 11.9596C37.3197 11.3045 37.1796 10.7256 36.8963 10.2288C36.618 9.74022 36.2012 9.33074 35.6421 9.00698C31.0272 6.34598 26.4077 3.69313 21.7943 1.02942C20.5505 0.311371 19.3446 0.337548 18.1101 1.0659C16.2732 2.14921 7.07655 7.41817 4.33607 9.00549C3.20747 9.65884 2.65828 10.6587 2.65801 11.9584C2.65625 17.3098 2.65801 22.6611 2.65625 28.0127C2.65652 28.6534 2.79066 29.221 3.06152 29.7104C3.33998 30.2137 3.76261 30.6345 4.33458 30.9655C7.0752 32.5529 16.2731 37.8214 18.1095 38.905C19.3446 39.6337 20.5505 39.6598 21.7947 38.9415C26.4083 36.2776 31.028 33.6249 35.6436 30.9639C36.2155 30.633 36.6382 30.212 36.9166 29.709C37.1871 29.2197 37.3215 28.652 37.3218 28.0112C37.3218 28.0112 37.3218 17.3112 37.32 11.9596" fill="#5C8DBC"/>
<path fill-rule="evenodd" clip-rule="evenodd" d="M20.042 19.9333L3.06152 29.7104C3.33998 30.2137 3.76261 30.6344 4.33458 30.9655C7.0752 32.5528 16.2731 37.8214 18.1095 38.905C19.3446 39.6337 20.5505 39.6598 21.7947 38.9415C26.4083 36.2776 31.028 33.6249 35.6436 30.9639C36.2155 30.6329 36.6382 30.2119 36.9166 29.709L20.042 19.9333" fill="#1A4674"/>
<path fill-rule="evenodd" clip-rule="evenodd" d="M15.0126 22.8294C16.0007 24.5544 17.8582 25.7179 19.989 25.7179C22.133 25.7179 24.0011 24.5396 24.9842 22.7962L20.0421 19.9333L15.0126 22.8294" fill="#1A4674"/>
<path fill-rule="evenodd" clip-rule="evenodd" d="M37.32 11.9596C37.3197 11.3045 37.1796 10.7256 36.8963 10.2288L20.0421 19.9333L36.9166 29.709C37.1871 29.2196 37.3215 28.652 37.3218 28.0111C37.3218 28.0111 37.3218 17.3111 37.32 11.9596" fill="#1B598E"/>
<path fill-rule="evenodd" clip-rule="evenodd" d="M36.3921 20.6322H35.0735V21.9511H33.7546V20.6322H32.4361V19.3137H33.7546V17.9951H35.0735V19.3137H36.3921V20.6322" fill="white"/>
<path fill-rule="evenodd" clip-rule="evenodd" d="M31.5805 20.6322H30.262V21.9511H28.9434V20.6322H27.6248V19.3137H28.9434V17.9951H30.262V19.3137H31.5805V20.6322" fill="white"/>
<path fill-rule="evenodd" clip-rule="evenodd" d="M24.9841 22.7963C24.0011 24.5397 22.133 25.7179 19.989 25.7179C17.8582 25.7179 16.0007 24.5545 15.0126 22.8295C14.5326 21.9913 14.2566 21.0208 14.2566 19.9855C14.2566 16.8197 16.8232 14.2532 19.989 14.2532C22.1061 14.2532 23.9539 15.4022 24.9468 17.1096L29.9573 14.2244C27.9658 10.7866 24.2476 8.47375 19.989 8.47375C13.6311 8.47375 8.47711 13.6278 8.47711 19.9855C8.47711 22.0713 9.03199 24.0273 10.0018 25.7144C11.9883 29.1704 15.717 31.4974 19.989 31.4974C24.2689 31.4974 28.0035 29.161 29.9871 25.6949L24.9841 22.7963" fill="white"/>
</svg>
