<svg width="32" height="32" viewBox="0 0 32 32" fill="none" xmlns="http://www.w3.org/2000/svg">
<ellipse cx="15.8463" cy="16.3297" rx="15.8411" ry="15.47" fill="#4269F6"/>
<g clip-path="url(#clip0_215_187)">
<path d="M23.2719 21.9698C23.4822 21.9701 23.6845 22.0487 23.8374 22.1897C23.9903 22.3306 24.0823 22.5233 24.0946 22.7283C24.107 22.9333 24.0387 23.1352 23.9037 23.2927C23.7687 23.4502 23.5773 23.5514 23.3684 23.5756L23.2719 23.5813H8.42088C8.21059 23.5811 8.00833 23.5024 7.85542 23.3614C7.7025 23.2205 7.61048 23.0278 7.59816 22.8228C7.58584 22.6178 7.65414 22.4159 7.78911 22.2584C7.92408 22.1009 8.11553 21.9997 8.32435 21.9755L8.42088 21.9698H23.2719ZM21.6218 9.88391C22.0381 9.88378 22.4391 10.0373 22.7443 10.3138C23.0496 10.5902 23.2366 10.9691 23.2678 11.3745L23.2719 11.4954V19.5526C23.272 19.9592 23.1148 20.3508 22.8318 20.6489C22.5487 20.947 22.1607 21.1296 21.7456 21.1601L21.6218 21.1641H10.071C9.65469 21.1642 9.25372 21.0107 8.94847 20.7342C8.64321 20.4578 8.45623 20.0789 8.42501 19.6735L8.42088 19.5526V11.4954C8.42075 11.0888 8.57798 10.6972 8.86105 10.3991C9.14412 10.101 9.53211 9.91843 9.94724 9.88794L10.071 9.88391L21.6218 9.88391Z" fill="white"/>
</g>
<defs>
<clipPath id="clip0_215_187">
<rect width="19.8014" height="19.3375" fill="white" transform="translate(5.94568 6.66101)"/>
</clipPath>
</defs>
</svg>
