<svg width="40" height="40" viewBox="0 0 40 40" fill="none" xmlns="http://www.w3.org/2000/svg">
<path fill-rule="evenodd" clip-rule="evenodd" d="M5.55363 36.0013L2.34375 0H37.6152L34.4019 35.9954L19.9581 40L5.55363 36.0013Z" fill="#0071BC"/>
<path fill-rule="evenodd" clip-rule="evenodd" d="M20.0091 36.9371L31.6658 33.7303L34.397 2.99817H20.0091V36.9371Z" fill="#29ABE2"/>
<path fill-rule="evenodd" clip-rule="evenodd" d="M9.69114 16.2249L10.0778 20.6338L20.0091 16.2249V11.8088L9.69114 16.2249Z" fill="#B3B3B3"/>
<path fill-rule="evenodd" clip-rule="evenodd" d="M31.0083 7.09485L20.0091 11.8088V16.2249L30.629 11.5038L31.0083 7.09485Z" fill="#E6E6E6"/>
<path fill-rule="evenodd" clip-rule="evenodd" d="M20.0091 27.7607L19.975 27.7658L15.0497 26.4431L14.728 22.9264H10.2953L10.9139 29.8546L19.974 32.3632L20.0091 32.3549V27.7607Z" fill="#E6E6E6"/>
<path fill-rule="evenodd" clip-rule="evenodd" d="M20.0091 16.2249V20.6338H25.4014L24.9113 26.3981L20.0091 27.7645V32.3584L29.0391 29.8498L30.2282 16.2249H20.0091Z" fill="white"/>
<path fill-rule="evenodd" clip-rule="evenodd" d="M20.0091 16.2249H9.69114L10.0778 20.6338H20.0091V16.2249Z" fill="#E6E6E6"/>
<path fill-rule="evenodd" clip-rule="evenodd" d="M20.0091 11.5038V7.09485H19.9643H8.90724L9.29849 11.5038H20.0091Z" fill="#E6E6E6"/>
<path fill-rule="evenodd" clip-rule="evenodd" d="M20.0091 7.09485V11.4485V11.5038H30.629L31.0083 7.09485H20.0091Z" fill="white"/>
</svg>
