<svg width="169" height="88" viewBox="0 0 169 88" fill="none" xmlns="http://www.w3.org/2000/svg">
<g filter="url(#filter0_d_215_205)">
<rect x="10.6903" y="3.05176e-05" width="160" height="55.8041" rx="22.3216" transform="rotate(10 10.6903 3.05176e-05)" fill="#D9D9D9"/>
<ellipse cx="42.5033" cy="33.9011" rx="15.8411" ry="15.47" transform="rotate(10 42.5033 33.9011)" fill="#4269F6"/>
<g clip-path="url(#clip0_215_205)">
<path d="M48.8367 40.7449C49.0437 40.7817 49.2293 40.8942 49.3554 41.0596C49.4815 41.225 49.5387 41.4307 49.5152 41.6348C49.4917 41.8388 49.3894 42.0258 49.2292 42.1574C49.0689 42.2891 48.8628 42.3555 48.6529 42.3431L48.5569 42.3319L33.9315 39.7531C33.7244 39.7163 33.5389 39.6038 33.4127 39.4384C33.2866 39.273 33.2295 39.0672 33.2529 38.8632C33.2764 38.6592 33.3787 38.4722 33.539 38.3406C33.6993 38.2089 33.9054 38.1425 34.1152 38.1549L34.2113 38.1661L48.8367 40.7449ZM49.3103 28.5561C49.7203 28.6283 50.0886 28.8491 50.3412 29.1743C50.5938 29.4996 50.7121 29.9052 50.6725 30.3099L50.6556 30.4296L49.2564 38.3645C49.186 38.7649 48.9631 39.1232 48.6326 39.3676C48.3021 39.612 47.8883 39.7245 47.4741 39.6824L47.3516 39.6649L35.9762 37.6591C35.5662 37.587 35.198 37.3661 34.9454 37.0409C34.6928 36.7156 34.5744 36.31 34.6141 35.9054L34.631 35.7856L36.0301 27.8508C36.1006 27.4504 36.3235 27.092 36.654 26.8476C36.9845 26.6032 37.3983 26.4907 37.8124 26.5328L37.935 26.5503L49.3103 28.5561Z" fill="white"/>
</g>
<path d="M76.6836 39.1672C76.4676 40.3922 76.0589 41.376 75.4575 42.1188C74.857 42.8567 74.086 43.3574 73.1447 43.6209C72.2043 43.8795 71.1216 43.9008 69.8966 43.6848L66.8764 43.1523L68.7941 32.2765L72.1416 32.8668C73.2674 33.0653 74.2035 33.44 74.9501 33.991C75.6976 34.537 76.2245 35.246 76.5309 36.1182C76.8382 36.9855 76.8891 38.0018 76.6836 39.1672ZM74.8147 38.8914C74.9721 37.9987 74.9602 37.2398 74.779 36.6147C74.6027 35.9904 74.2663 35.4914 73.7697 35.1174C73.279 34.7395 72.6369 34.4805 71.8434 34.3406L70.3184 34.0717L68.9254 41.9718L70.19 42.1948C71.5042 42.4266 72.5452 42.265 73.3129 41.71C74.0806 41.1551 74.5812 40.2155 74.8147 38.8914ZM82.6313 37.2783C83.3653 37.4077 83.9684 37.67 84.4408 38.0652C84.9131 38.4604 85.2417 38.9607 85.4264 39.566C85.6112 40.1712 85.6353 40.8607 85.4989 41.6344L85.3336 42.5717L79.8363 41.6023C79.7153 42.4043 79.8201 43.0568 80.1507 43.56C80.4862 44.064 81.0235 44.3812 81.7624 44.5115C82.2881 44.6042 82.768 44.6377 83.2021 44.6119C83.642 44.5821 84.1026 44.5074 84.5839 44.3877L84.3333 45.8085C83.8876 45.9294 83.4436 45.9968 83.0014 46.0109C82.5592 46.0249 82.0405 45.9795 81.4454 45.8746C80.637 45.732 79.9529 45.4503 79.393 45.0295C78.839 44.6045 78.4435 44.049 78.2065 43.3629C77.9745 42.6777 77.9403 41.8714 78.1038 40.944C78.2665 40.0216 78.5608 39.2656 78.987 38.6759C79.4131 38.0863 79.9385 37.6728 80.5634 37.4352C81.1882 37.1977 81.8775 37.1454 82.6313 37.2783ZM82.3991 38.595C81.8487 38.4979 81.3708 38.5977 80.9657 38.8945C80.5655 39.1921 80.2749 39.6803 80.0938 40.3591L83.843 41.0202C83.9107 40.6077 83.9055 40.231 83.8276 39.89C83.7546 39.5498 83.5999 39.2669 83.3636 39.0412C83.1323 38.8163 82.8108 38.6675 82.3991 38.595ZM88.5312 46.9706L86.8514 38.1835L88.7037 38.5101L89.5472 43.6444C89.6021 43.9712 89.6427 44.3209 89.669 44.6937C89.6953 45.0665 89.7044 45.3775 89.6962 45.6266L89.7557 45.6371C89.8351 45.3903 89.9553 45.0996 90.1166 44.765C90.2788 44.4254 90.4386 44.1135 90.5961 43.8294L93.1447 39.2931L94.9896 39.6184L90.4058 47.3011L88.5312 46.9706ZM99.5475 40.261C100.281 40.3905 100.885 40.6528 101.357 41.048C101.829 41.4432 102.158 41.9434 102.343 42.5487C102.527 43.154 102.551 43.8435 102.415 44.6171L102.25 45.5544L96.7524 44.5851C96.6315 45.387 96.7363 46.0396 97.0669 46.5428C97.4024 47.0468 97.9396 47.364 98.6786 47.4943C99.2043 47.587 99.6841 47.6204 100.118 47.5947C100.558 47.5649 101.019 47.4901 101.5 47.3705L101.249 48.7913C100.804 48.9121 100.36 48.9796 99.9176 48.9937C99.4753 49.0077 98.9566 48.9623 98.3615 48.8573C97.5532 48.7148 96.869 48.4331 96.3092 48.0122C95.7552 47.5873 95.3597 47.0318 95.1227 46.3457C94.8907 45.6605 94.8564 44.8542 95.02 43.9268C95.1826 43.0044 95.477 42.2483 95.9031 41.6587C96.3292 41.0691 96.8547 40.6555 97.4795 40.418C98.1043 40.1804 98.7936 40.1281 99.5475 40.261ZM99.3153 41.5777C98.7648 41.4807 98.287 41.5805 97.8818 41.8772C97.4816 42.1748 97.191 42.6631 97.01 43.3419L100.759 44.003C100.827 43.5905 100.822 43.2138 100.744 42.8728C100.671 42.5326 100.516 42.2497 100.28 42.0239C100.048 41.799 99.7269 41.6503 99.3153 41.5777ZM105.321 49.9311L103.565 49.6215L105.606 38.0465L107.362 38.3561L105.321 49.9311ZM115.84 47.5212C115.719 48.2056 115.523 48.7973 115.251 49.2965C114.979 49.7957 114.639 50.1986 114.232 50.5052C113.826 50.8069 113.365 51.0121 112.85 51.1206C112.336 51.2243 111.776 51.2228 111.171 51.1161C110.606 51.0164 110.104 50.8308 109.666 50.5592C109.229 50.2828 108.869 49.9329 108.586 49.5097C108.308 49.0823 108.122 48.5867 108.027 48.0229C107.933 47.459 107.945 46.8349 108.066 46.1505C108.226 45.2429 108.518 44.5018 108.941 43.927C109.371 43.3482 109.907 42.9443 110.551 42.7152C111.195 42.4861 111.921 42.4428 112.729 42.5853C113.488 42.7191 114.128 43.0033 114.65 43.4379C115.172 43.8725 115.54 44.436 115.755 45.1285C115.971 45.821 115.999 46.6186 115.84 47.5212ZM109.866 46.4679C109.761 47.068 109.742 47.5939 109.811 48.0458C109.884 48.4985 110.055 48.8661 110.322 49.1484C110.59 49.4258 110.967 49.6073 111.453 49.693C111.939 49.7787 112.355 49.7371 112.702 49.5682C113.05 49.3942 113.333 49.1067 113.552 48.7056C113.771 48.3044 113.934 47.8038 114.04 47.2038C114.145 46.6037 114.163 46.0827 114.093 45.6407C114.023 45.1938 113.854 44.8342 113.585 44.5618C113.317 44.2844 112.937 44.1024 112.446 44.0158C111.722 43.8881 111.151 44.038 110.733 44.4654C110.315 44.8929 110.026 45.5604 109.866 46.4679ZM122.824 44.3653C123.801 44.5376 124.521 45.0328 124.986 45.851C125.455 46.6701 125.565 47.7838 125.317 49.1923C125.153 50.1246 124.875 50.8862 124.485 51.477C124.1 52.0637 123.631 52.4769 123.077 52.7168C122.529 52.9526 121.928 53.0128 121.273 52.8973C120.857 52.8239 120.504 52.7055 120.216 52.5422C119.928 52.3789 119.69 52.1912 119.502 51.9791C119.316 51.7621 119.166 51.5363 119.054 51.3018L118.95 51.2835C118.94 51.4862 118.923 51.7108 118.9 51.9573C118.883 52.1997 118.857 52.4201 118.822 52.6185L118.231 55.9735L116.475 55.6639L118.571 43.7765L119.999 44.0283L120.044 45.2098L120.126 45.2242C120.321 45.0182 120.545 44.8353 120.798 44.6754C121.056 44.5164 121.351 44.4074 121.684 44.3484C122.022 44.2853 122.402 44.291 122.824 44.3653ZM122.103 45.7109C121.622 45.6261 121.218 45.6546 120.892 45.7964C120.571 45.9342 120.31 46.1822 120.109 46.5404C119.912 46.8996 119.759 47.3659 119.647 47.9394L119.604 48.1849C119.496 48.7949 119.467 49.3241 119.516 49.7724C119.57 50.2167 119.724 50.5762 119.978 50.851C120.237 51.1217 120.619 51.3016 121.125 51.3908C121.551 51.466 121.924 51.4115 122.243 51.2274C122.567 51.0442 122.836 50.7491 123.051 50.3421C123.266 49.9351 123.425 49.439 123.528 48.8538C123.685 47.9661 123.648 47.2488 123.417 46.7019C123.191 46.1558 122.753 45.8255 122.103 45.7109ZM131.371 45.8724C132.105 46.0019 132.708 46.2642 133.181 46.6594C133.653 47.0546 133.982 47.5548 134.166 48.1601C134.351 48.7654 134.375 49.4549 134.239 50.2285L134.074 51.1658L128.576 50.1965C128.455 50.9984 128.56 51.651 128.891 52.1542C129.226 52.6582 129.763 52.9754 130.502 53.1057C131.028 53.1983 131.508 53.2318 131.942 53.2061C132.382 53.1763 132.842 53.1015 133.324 52.9819L133.073 54.4027C132.628 54.5235 132.184 54.591 131.741 54.605C131.299 54.6191 130.78 54.5737 130.185 54.4687C129.377 54.3262 128.693 54.0445 128.133 53.6236C127.579 53.1987 127.183 52.6432 126.946 51.9571C126.714 51.2719 126.68 50.4656 126.844 49.5382C127.006 48.6158 127.301 47.8597 127.727 47.2701C128.153 46.6805 128.678 46.2669 129.303 46.0294C129.928 45.7918 130.617 45.7395 131.371 45.8724ZM131.139 47.1891C130.589 47.0921 130.111 47.1919 129.706 47.4886C129.305 47.7862 129.015 48.2745 128.834 48.9533L132.583 49.6144C132.651 49.2019 132.645 48.8252 132.567 48.4841C132.495 48.144 132.34 47.8611 132.104 47.6353C131.872 47.4104 131.551 47.2617 131.139 47.1891ZM141.042 47.5776C141.181 47.6021 141.331 47.6362 141.492 47.68C141.653 47.7237 141.791 47.7684 141.905 47.8142L141.453 49.4219C141.354 49.3738 141.229 49.3288 141.078 49.2868C140.932 49.2457 140.799 49.2146 140.68 49.1936C140.368 49.1385 140.061 49.1382 139.76 49.1925C139.46 49.2418 139.182 49.3514 138.927 49.5212C138.673 49.686 138.457 49.9113 138.279 50.1969C138.101 50.4825 137.976 50.8286 137.904 51.2353L137.145 55.5425L135.389 55.2329L136.841 46.998L138.21 47.2393L138.192 48.7319L138.274 48.7463C138.489 48.4826 138.74 48.2506 139.026 48.0505C139.311 47.8503 139.623 47.7059 139.961 47.6172C140.305 47.5243 140.665 47.5112 141.042 47.5776Z" fill="black"/>
</g>
<defs>
<filter id="filter0_d_215_205" x="0.533264" y="3.53329" width="168.193" height="83.6735" filterUnits="userSpaceOnUse" color-interpolation-filters="sRGB">
<feFlood flood-opacity="0" result="BackgroundImageFix"/>
<feColorMatrix in="SourceAlpha" type="matrix" values="0 0 0 0 0 0 0 0 0 0 0 0 0 0 0 0 0 0 127 0" result="hardAlpha"/>
<feOffset dy="4"/>
<feGaussianBlur stdDeviation="2"/>
<feComposite in2="hardAlpha" operator="out"/>
<feColorMatrix type="matrix" values="0 0 0 0 0 0 0 0 0 0 0 0 0 0 0 0 0 0 0.5 0"/>
<feBlend mode="normal" in2="BackgroundImageFix" result="effect1_dropShadow_215_205"/>
<feBlend mode="normal" in="SourceGraphic" in2="effect1_dropShadow_215_205" result="shape"/>
</filter>
<clipPath id="clip0_215_205">
<rect width="19.8014" height="19.3375" fill="white" transform="translate(34.4321 22.66) rotate(10)"/>
</clipPath>
</defs>
</svg>
