<svg width="70" height="70" viewBox="0 0 70 70" fill="none" xmlns="http://www.w3.org/2000/svg">
<path d="M9.46332 17.7248C11.2932 16.4458 14.0517 16.6911 15.6948 18.048L13.8103 15.309C12.2938 13.1461 12.837 10.8062 15.0017 9.28776C17.1665 7.77516 23.3006 11.8418 23.3006 11.8418C21.7705 9.65763 22.0566 6.8894 24.2408 5.35734C26.425 3.83111 29.4386 4.35867 30.9687 6.54678L51.2535 35.2024L48.6682 60.2664L27.0928 52.3978L8.27387 24.4955C6.73013 22.2977 7.26353 19.2666 9.46332 17.7248Z" fill="#EF9645"/>
<path d="M5.24665 33.6665C5.24665 33.6665 3.04297 30.4544 6.257 28.2527C9.46713 26.0509 11.6689 29.2611 11.6689 29.2611L21.8911 44.169C22.2434 43.5811 22.6289 43.001 23.0591 42.4287L8.87144 21.7409C8.87144 21.7409 6.6697 18.5308 9.88178 16.329C13.0919 14.1273 15.2937 17.3374 15.2937 17.3374L28.6384 36.7988C29.1348 36.3938 29.6429 35.987 30.1666 35.5879L14.696 13.0235C14.696 13.0235 12.4943 9.81339 15.7064 7.61165C18.9165 5.40992 21.1182 8.62005 21.1182 8.62005L36.5888 31.1805C37.1572 30.8321 37.7198 30.5303 38.2844 30.2111L23.8242 9.12425C23.8242 9.12425 21.6224 5.91412 24.8326 3.71238C28.0427 1.51064 30.2444 4.72078 30.2444 4.72078L45.5339 27.0185L47.8583 30.4096C38.226 37.0168 37.3091 49.4466 42.8124 57.4729C43.9123 59.0789 45.5184 57.979 45.5184 57.979C38.9132 48.3447 40.93 37.519 50.5642 30.9138L47.724 16.6989C47.724 16.6989 46.663 12.9534 50.4066 11.8905C54.152 10.8296 55.215 14.5751 55.215 14.5751L58.4952 24.3164C59.7956 28.1787 61.1797 32.0274 63.0115 35.6677C68.184 45.9464 65.0945 58.7207 55.3415 65.4116C44.7027 72.7059 30.1588 69.9942 22.8625 59.3573L5.24665 33.6665Z" fill="#FFDC5D"/>
<path d="M23.3608 62.2949C15.5739 62.2949 7.70532 54.4263 7.70532 46.6394C7.70532 45.5629 6.9169 44.6927 5.84037 44.6927C4.76383 44.6927 3.81189 45.5629 3.81189 46.6394C3.81189 58.3197 11.6805 66.1883 23.3608 66.1883C24.4373 66.1883 25.3075 65.2364 25.3075 64.1599C25.3075 63.0833 24.4373 62.2949 23.3608 62.2949Z" fill="#5DADEC"/>
<path d="M13.6271 66.1065C7.78692 66.1065 3.89349 62.2131 3.89349 56.373C3.89349 55.2964 3.02331 54.4263 1.94678 54.4263C0.870243 54.4263 6.10352e-05 55.2964 6.10352e-05 56.373C6.10352e-05 64.1598 5.84021 70 13.6271 70C14.7036 70 15.5738 69.1298 15.5738 68.0533C15.5738 66.9767 14.7036 66.1065 13.6271 66.1065ZM46.7212 3.81164C45.6466 3.81164 44.7745 4.68377 44.7745 5.75836C44.7745 6.83294 45.6466 7.70507 46.7212 7.70507C54.5081 7.70507 62.295 14.6918 62.295 23.2788C62.295 24.3534 63.1671 25.2255 64.2417 25.2255C65.3163 25.2255 66.1884 24.3534 66.1884 23.2788C66.1884 12.5446 58.4015 3.81164 46.7212 3.81164Z" fill="#5DADEC"/>
<path d="M56.4549 0C55.3803 0 54.5082 0.790367 54.5082 1.86495C54.5082 2.93954 55.3803 3.89343 56.4549 3.89343C62.295 3.89343 66.1067 8.22487 66.1067 13.5452C66.1067 14.6198 67.0587 15.492 68.1352 15.492C69.2117 15.492 70.0001 14.6198 70.0001 13.5452C70.0001 6.0757 64.2418 0 56.4549 0Z" fill="#5DADEC"/>
</svg>
