<svg width="40" height="40" viewBox="0 0 40 40" fill="none" xmlns="http://www.w3.org/2000/svg">
<path d="M13.3854 40.0001C17.0654 40.0001 20.0521 37.0134 20.0521 33.3334V26.6667H13.3854C9.70542 26.6667 6.71875 29.6534 6.71875 33.3334C6.71875 37.0134 9.70542 40.0001 13.3854 40.0001Z" fill="#0ACF83"/>
<path d="M6.71875 19.9999C6.71875 16.3199 9.70542 13.3333 13.3854 13.3333H20.0521V26.6666H13.3854C9.70542 26.6666 6.71875 23.6799 6.71875 19.9999Z" fill="#A259FF"/>
<path d="M6.71875 6.66667C6.71875 2.98667 9.70542 0 13.3854 0H20.0521V13.3333H13.3854C9.70542 13.3333 6.71875 10.3467 6.71875 6.66667Z" fill="#F24E1E"/>
<path d="M20.0521 0H26.7187C30.3987 0 33.3854 2.98667 33.3854 6.66667C33.3854 10.3467 30.3987 13.3333 26.7187 13.3333H20.0521V0Z" fill="#FF7262"/>
<path d="M33.3854 19.9999C33.3854 23.6799 30.3987 26.6666 26.7187 26.6666C23.0387 26.6666 20.0521 23.6799 20.0521 19.9999C20.0521 16.3199 23.0387 13.3333 26.7187 13.3333C30.3987 13.3333 33.3854 16.3199 33.3854 19.9999Z" fill="#1ABCFE"/>
</svg>
