<svg xmlns="http://www.w3.org/2000/svg" width="18" height="18" viewBox="0 0 18 18" fill="none">
  <path d="M17.1884 9.09605C17.1884 8.98559 17.1884 8.87994 17.1836 8.76948C17.1355 7.29029 16.7513 5.89755 16.1078 4.67769C14.6382 1.88741 11.8287 0 8.59658 0C5.36446 0 2.55016 1.88741 1.08058 4.67769C0.437033 5.90235 0.0528329 7.29029 0.00480725 8.76948C4.69011e-06 8.87994 0 8.98559 0 9.09605V13.6201C0 15.6035 1.39754 17.2556 3.26574 17.6542C3.46744 17.8607 3.77482 18 4.12061 18C4.46639 18 4.77375 17.8655 4.97546 17.6542L4.98987 17.6398V9.60032H4.98506C4.78816 9.3842 4.47119 9.24013 4.1158 9.24013C3.76041 9.24013 3.44344 9.3842 3.24654 9.60032H3.24173C2.59819 9.73479 2.01228 10.0277 1.52242 10.4264C1.484 10.46 1.17182 10.7385 1.07577 10.8538V9.01441C1.07577 8.88474 1.18143 8.77428 1.3159 8.77428H1.32551H1.42155C1.58004 4.73052 4.73053 1.5032 8.58698 1.5032C12.4434 1.5032 15.5891 4.73052 15.7476 8.77428H15.8581C15.9925 8.77428 16.0982 8.88474 16.0982 9.01441V10.8538C16.0021 10.7385 15.8917 10.6281 15.7764 10.5368C15.7764 10.5368 15.69 10.46 15.6515 10.4264C15.1617 10.0277 14.5758 9.73959 13.9322 9.60032C13.7305 9.3842 13.4136 9.24013 13.0582 9.24013C12.7028 9.24013 12.3954 9.3746 12.1889 9.59552V17.6494C12.1889 17.6494 12.1937 17.6542 12.1985 17.6542C12.4002 17.8607 12.7124 18 13.0534 18C13.3943 18 13.7065 17.8655 13.9082 17.6542C15.7764 17.2556 17.174 15.6035 17.174 13.6201C17.174 13.3031 17.1355 12.9909 17.0683 12.6932C17.1355 12.9909 17.174 13.2983 17.174 13.6201V9.09605H17.1884Z" fill="white"/>
  <path d="M3.39053 15.0416C3.27527 15.0416 3.18402 14.9504 3.18402 14.8351V12.4194C3.18402 12.3042 3.27527 12.2129 3.39053 12.2129C3.50579 12.2129 3.59703 12.3042 3.59703 12.4194V14.8351C3.59703 14.9504 3.50579 15.0416 3.39053 15.0416Z" fill="white"/>
  <path d="M2.46362 14.5277C2.34836 14.5277 2.25711 14.4365 2.25711 14.3212V12.9333C2.25711 12.818 2.34836 12.7268 2.46362 12.7268C2.57888 12.7268 2.67012 12.818 2.67012 12.9333V14.3212C2.67012 14.4365 2.57888 14.5277 2.46362 14.5277Z" fill="white"/>
  <path d="M13.7641 15.0608C13.6489 15.0608 13.5576 14.9696 13.5576 14.8543V12.4386C13.5576 12.3234 13.6489 12.2321 13.7641 12.2321C13.8794 12.2321 13.9707 12.3234 13.9707 12.4386V14.8543C13.9707 14.9696 13.8794 15.0608 13.7641 15.0608Z" fill="white"/>
  <path d="M14.691 14.547C14.5757 14.547 14.4844 14.4557 14.4844 14.3405V12.9525C14.4844 12.8373 14.5757 12.746 14.691 12.746C14.8062 12.746 14.8975 12.8373 14.8975 12.9525V14.3405C14.8975 14.4557 14.8062 14.547 14.691 14.547Z" fill="white"/>
</svg>