<svg width="42" height="40" viewBox="0 0 42 40" fill="none" xmlns="http://www.w3.org/2000/svg">
<g clip-path="url(#clip0_108_284)">
<path d="M15.7319 30.9342C15.7319 30.9342 14.1716 31.8231 16.8423 32.1239C20.0777 32.4855 21.7312 32.4337 25.2967 31.7726C25.2967 31.7726 26.234 32.3484 27.5432 32.8471C19.5504 36.2031 9.45402 32.6527 15.7319 30.9342Z" fill="#5382A1"/>
<path d="M14.7554 26.5548C14.7554 26.5548 13.0055 27.8239 15.6781 28.0947C19.1342 28.444 21.8636 28.4726 26.5865 27.5816C26.5865 27.5816 27.2398 28.2304 28.2669 28.5852C18.6032 31.3537 7.83963 28.8036 14.7554 26.5548Z" fill="#5382A1"/>
<path d="M22.989 19.126C24.9584 21.3473 22.4715 23.3463 22.4715 23.3463C22.4715 23.3463 27.4722 20.8172 25.1756 17.6502C23.0307 14.6968 21.3858 13.2293 30.2905 8.1698C30.2905 8.1698 16.313 11.5898 22.989 19.126Z" fill="#E76F00"/>
<path d="M33.56 34.1734C33.56 34.1734 34.7146 35.1054 32.2884 35.8265C27.6749 37.1957 13.0865 37.6092 9.03386 35.881C7.57705 35.2602 10.309 34.3985 11.1683 34.2177C12.0646 34.0273 12.5767 34.0628 12.5767 34.0628C10.9566 32.9447 2.10495 36.2583 8.08052 37.2073C24.3768 39.7964 37.787 36.0414 33.56 34.1734Z" fill="#5382A1"/>
<path d="M16.4825 22.0174C16.4825 22.0174 9.06186 23.7441 13.8546 24.3711C15.8783 24.6366 19.9124 24.5765 23.6701 24.2681C26.7411 24.0143 29.8247 23.4747 29.8247 23.4747C29.8247 23.4747 28.7418 23.929 27.9584 24.4531C20.4229 26.3947 5.86576 25.4914 10.0566 23.5054C13.6008 21.827 16.4825 22.0174 16.4825 22.0174Z" fill="#5382A1"/>
<path d="M29.794 29.307C37.4541 25.4073 33.9124 21.6597 31.4403 22.1646C30.8344 22.2881 30.5642 22.3952 30.5642 22.3952C30.5642 22.3952 30.7891 22.05 31.2188 21.9005C36.1094 20.2161 39.8706 26.8687 29.64 29.5035C29.64 29.5036 29.7585 29.3998 29.794 29.307Z" fill="#5382A1"/>
<path d="M25.1758 0C25.1758 0 29.4181 4.15759 21.1521 10.5508C14.5236 15.6792 19.6406 18.6033 21.1494 21.9442C17.2802 18.5242 14.4408 15.5135 16.3457 12.7115C19.1417 8.59829 26.8874 6.60408 25.1758 0Z" fill="#E76F00"/>
<path d="M17.235 39.8743C24.5878 40.3354 35.8788 39.6185 36.1463 36.21C36.1463 36.21 35.6322 37.5021 30.0696 38.5283C23.7938 39.6853 16.0535 39.5502 11.4626 38.8087C11.4628 38.8086 12.4025 39.5707 17.235 39.8743Z" fill="#5382A1"/>
</g>
<defs>
<clipPath id="clip0_108_284">
<rect width="40.829" height="40" fill="white" transform="translate(0.611389)"/>
</clipPath>
</defs>
</svg>
