<svg width="41" height="40" viewBox="0 0 41 40" fill="none" xmlns="http://www.w3.org/2000/svg">
<g clip-path="url(#clip0_108_245)">
<path fill-rule="evenodd" clip-rule="evenodd" d="M0.279785 0H40.2798V40H0.279785V0Z" fill="#F7DF1E"/>
<path fill-rule="evenodd" clip-rule="evenodd" d="M10.7973 33.4269L13.8584 31.5744C14.4489 32.6215 14.9861 33.5074 16.2747 33.5074C17.5098 33.5074 18.2886 33.0242 18.2886 31.1448V18.3639H22.0476V31.198C22.0476 35.0913 19.7654 36.8634 16.4358 36.8634C13.4288 36.8634 11.6832 35.3061 10.7972 33.4266" fill="black"/>
<path fill-rule="evenodd" clip-rule="evenodd" d="M24.0893 33.0241L27.15 31.252C27.9557 32.5678 29.0029 33.5343 30.8555 33.5343C32.413 33.5343 33.4062 32.7556 33.4062 31.6816C33.4062 30.3927 32.386 29.9362 30.6675 29.1847L29.728 28.7816C27.0159 27.6273 25.2169 26.1774 25.2169 23.1164C25.2169 20.2971 27.3649 18.1489 30.7213 18.1489C33.111 18.1489 34.8295 18.9814 36.0644 21.1563L33.1377 23.0357C32.4933 21.8812 31.7954 21.4249 30.7214 21.4249C29.6205 21.4249 28.9223 22.123 28.9223 23.0357C28.9223 24.1635 29.6205 24.62 31.2314 25.3182L32.171 25.7209C35.3663 27.0904 37.1653 28.4865 37.1653 31.6278C37.1653 35.0112 34.5072 36.8637 30.9361 36.8637C27.4456 36.8637 25.1901 35.1991 24.0894 33.0241" fill="black"/>
</g>
<defs>
<clipPath id="clip0_108_245">
<rect width="40" height="40" fill="white" transform="translate(0.279785)"/>
</clipPath>
</defs>
</svg>
