<svg width="40" height="40" viewBox="0 0 40 40" fill="none" xmlns="http://www.w3.org/2000/svg">
<g clip-path="url(#clip0_114_859)">
<g clip-path="url(#clip1_114_859)">
<g clip-path="url(#clip2_114_859)">
<path fill-rule="evenodd" clip-rule="evenodd" d="M37.2432 19.0205C37.2072 19.0277 37.1712 19.1071 37.1712 19.1503C37.164 19.4387 37.1568 20.2029 37.1568 20.722C37.1568 20.7364 37.1783 20.7652 37.2 20.7652C37.3081 20.7724 37.5677 20.7796 37.7912 20.7796C38.1012 20.7796 38.2814 20.7364 38.3824 20.6932C38.6419 20.5634 38.7645 20.2822 38.7645 19.9722C38.7645 19.2729 38.2742 19.0061 37.546 19.0061C37.4956 18.9989 37.3514 18.9989 37.2432 19.0205ZM39.1033 22.2432C39.1033 21.5294 38.577 21.1329 37.6254 21.1329C37.5821 21.1329 37.2793 21.1257 37.2072 21.1401C37.1856 21.1473 37.1568 21.1618 37.1568 21.1834C37.1568 21.6952 37.1495 22.51 37.1712 22.8271C37.1856 22.9641 37.2865 23.1588 37.4091 23.2165C37.5388 23.2886 37.8345 23.3029 38.0363 23.3029C38.6059 23.3029 39.1033 22.9858 39.1033 22.2432ZM35.7725 18.624C35.8446 18.624 36.0609 18.6456 36.6161 18.6456C37.1423 18.6456 37.5605 18.6312 38.0724 18.6312C38.6996 18.6312 39.5647 18.8547 39.5647 19.7919C39.5647 20.2534 39.2403 20.6211 38.8149 20.8013C38.7933 20.8085 38.7933 20.8229 38.8149 20.8301C39.4205 20.9815 39.9541 21.3564 39.9541 22.0629C39.9541 22.7551 39.5215 23.1948 38.8942 23.4688C38.5121 23.6346 38.0363 23.6923 37.5533 23.6923C37.1856 23.6923 36.1979 23.649 35.65 23.6635C35.5923 23.6418 35.7004 23.3823 35.7509 23.339C35.8807 23.3318 35.9816 23.3246 36.1186 23.2814C36.3133 23.2309 36.3348 23.1732 36.3637 22.8776C36.3781 22.6253 36.3781 21.7313 36.3781 21.0969C36.3781 20.2245 36.3854 19.6333 36.3781 19.345C36.3709 19.1215 36.2916 19.0494 36.133 19.0061C36.0105 18.9845 35.8086 18.9556 35.6428 18.934C35.6067 18.898 35.7292 18.6528 35.7725 18.624ZM31.6126 23.1083C31.7857 23.2453 32.1245 23.3029 32.4273 23.3029C32.8167 23.3029 33.2059 23.2309 33.5808 22.892C33.963 22.546 34.2297 22.0125 34.2297 21.1618C34.2297 20.3471 33.9197 19.6838 33.2853 19.2945C32.9248 19.071 32.4633 18.9773 31.9298 18.9773C31.7713 18.9773 31.6198 18.9845 31.5261 19.0277C31.5045 19.0422 31.454 19.1071 31.454 19.1431C31.4396 19.2873 31.4396 20.3975 31.4396 21.0464C31.4396 21.7169 31.4396 22.6541 31.454 22.7622C31.454 22.8704 31.5045 23.0362 31.6126 23.1083ZM29.976 18.624C30.113 18.624 30.6393 18.6456 30.8917 18.6456C31.3459 18.6456 31.6703 18.624 32.5282 18.624C33.2492 18.624 33.8548 18.8187 34.2873 19.1863C34.8136 19.6406 35.0876 20.2678 35.0876 21.032C35.0876 22.1206 34.5901 22.7479 34.0927 23.1083C33.5953 23.476 32.9464 23.6923 32.0236 23.6923C31.5333 23.6923 30.6898 23.6779 29.9905 23.6706H29.9833C29.9472 23.6058 30.0409 23.3535 30.0986 23.3463C30.2861 23.3246 30.3365 23.3174 30.4303 23.2814C30.5816 23.2237 30.6105 23.1444 30.6322 22.8777C30.6538 22.3802 30.6465 21.7818 30.6465 21.1041C30.6465 20.6211 30.6538 19.6766 30.6393 19.3738C30.6177 19.1215 30.5096 19.0566 30.2933 19.0133C30.1852 18.9917 30.0409 18.9628 29.8391 18.9413C29.8102 18.8907 29.94 18.6673 29.976 18.624Z" fill="#8E714E"/>
<path fill-rule="evenodd" clip-rule="evenodd" d="M21.2526 23.3895C21.0724 23.3679 20.9426 23.3391 20.7839 23.267C20.7624 23.2525 20.7263 23.1805 20.7263 23.1516C20.7118 22.8993 20.7118 22.1783 20.7118 21.6953C20.7118 21.3059 20.647 20.9671 20.4811 20.7292C20.2865 20.4552 20.0053 20.2966 19.6448 20.2966C19.3276 20.2966 18.9022 20.513 18.549 20.8158C18.5418 20.8229 18.4841 20.8734 18.4913 20.7941C18.4913 20.7148 18.5058 20.5562 18.513 20.4481C18.5202 20.3471 18.4625 20.2966 18.4625 20.2966C18.2318 20.412 17.5829 20.5634 17.345 20.585C17.172 20.6211 17.1288 20.7869 17.309 20.8446H17.3162C17.5108 20.9022 17.6406 20.9671 17.7415 21.032C17.8136 21.0897 17.8064 21.169 17.8064 21.2339C17.8136 21.7746 17.8136 22.6037 17.792 23.0579C17.7848 23.2381 17.7344 23.303 17.6046 23.3318L17.6189 23.3246C17.518 23.3463 17.4387 23.3679 17.3161 23.3823C17.2729 23.4255 17.2729 23.6563 17.3161 23.7067C17.3955 23.7067 17.8136 23.6851 18.1597 23.6851C18.6355 23.6851 18.8807 23.7067 19.0032 23.7067C19.0537 23.6491 19.0681 23.4328 19.0392 23.3823C18.9022 23.3751 18.8013 23.3607 18.7076 23.3318C18.5779 23.303 18.5418 23.2381 18.5346 23.0867C18.5202 22.7046 18.5202 21.8972 18.5202 21.3492C18.5202 21.1978 18.5634 21.1257 18.6067 21.0825C18.7725 20.9383 19.0392 20.8373 19.2772 20.8373C19.5078 20.8373 19.6593 20.9094 19.7746 21.0032C19.9332 21.1329 19.9837 21.3204 20.0053 21.4574C20.0413 21.7674 20.027 22.3802 20.027 22.9137C20.027 23.2021 20.0053 23.2742 19.8972 23.3102C19.8467 23.3318 19.717 23.3607 19.5655 23.3751C19.5151 23.4255 19.5295 23.6491 19.5655 23.6995C19.7746 23.6995 20.0198 23.6779 20.3802 23.6779C20.8272 23.6779 21.1156 23.6995 21.231 23.6995C21.267 23.6563 21.2814 23.4472 21.2525 23.3895H21.2526ZM23.2496 20.6355C22.8675 20.6355 22.6296 20.9311 22.6296 21.3925C22.6296 21.8611 22.8386 22.4018 23.4299 22.4018C23.5308 22.4018 23.7182 22.3585 23.8047 22.2576C23.9417 22.1279 24.0355 21.8683 24.0355 21.5944C24.0355 20.996 23.7398 20.6355 23.2496 20.6355ZM23.1991 23.8221C23.055 23.8221 22.954 23.8653 22.8892 23.9014C22.5863 24.096 22.4494 24.2835 22.4494 24.507C22.4494 24.7161 22.5286 24.8819 22.7017 25.0261C22.9107 25.2063 23.1991 25.2929 23.5668 25.2929C24.3022 25.2929 24.6266 24.8963 24.6266 24.507C24.6266 24.233 24.4896 24.0528 24.2085 23.9519C24.0066 23.8653 23.6389 23.8221 23.1991 23.8221ZM23.2496 25.6966C22.8098 25.6966 22.4926 25.6028 22.2187 25.3938C21.9519 25.1919 21.8365 24.8891 21.8365 24.68C21.8365 24.6224 21.851 24.4637 21.9808 24.3196C22.06 24.233 22.233 24.0672 22.644 23.7861C22.6584 23.7789 22.6656 23.7716 22.6656 23.7572C22.6656 23.7428 22.6512 23.7283 22.6368 23.7212C22.2979 23.5914 22.197 23.3823 22.1681 23.267V23.2525C22.161 23.2093 22.1466 23.166 22.2115 23.1227C22.2619 23.0867 22.334 23.0435 22.4133 22.993C22.5358 22.9209 22.6656 22.8416 22.7449 22.7767C22.7594 22.7623 22.7594 22.7479 22.7594 22.7335C22.7594 22.719 22.7449 22.7046 22.7305 22.6974C22.2259 22.5316 21.9735 22.1567 21.9735 21.5944C21.9735 21.2267 22.1393 20.895 22.4349 20.686C22.6368 20.5273 23.1414 20.3327 23.4731 20.3327H23.4948C23.8336 20.3399 24.021 20.412 24.2877 20.5057C24.432 20.5562 24.569 20.5778 24.7564 20.5778C25.0376 20.5778 25.1601 20.4913 25.261 20.3904C25.2682 20.4048 25.2827 20.4408 25.2899 20.5345C25.2971 20.6283 25.2682 20.7652 25.1961 20.8662C25.1385 20.9455 25.0088 21.0032 24.879 21.0032H24.8429C24.7131 20.9888 24.6554 20.9743 24.6554 20.9743L24.6266 20.9888C24.6194 21.0032 24.6266 21.0176 24.6338 21.0392L24.6411 21.0537C24.6554 21.1186 24.6843 21.3132 24.6843 21.3637C24.6843 21.9548 24.4464 22.2143 24.1941 22.409C23.9489 22.5892 23.6678 22.7046 23.3505 22.7335C23.3433 22.7335 23.3145 22.7335 23.2496 22.7407C23.2135 22.7407 23.1631 22.7479 23.1559 22.7479H23.1487C23.091 22.7623 22.9468 22.8344 22.9468 22.9569C22.9468 23.0651 23.0117 23.1948 23.3217 23.2165C23.3866 23.2237 23.4515 23.2237 23.5236 23.2309C23.9345 23.2597 24.4464 23.2958 24.6843 23.3751C25.0159 23.4976 25.225 23.7932 25.225 24.1465C25.225 24.68 24.8429 25.1775 24.2085 25.4875C23.8985 25.6245 23.5885 25.6966 23.2496 25.6966ZM27.359 20.6715C27.2076 20.6715 27.0706 20.7076 26.9697 20.7797C26.6886 20.9527 26.5443 21.2988 26.5443 21.8034C26.5443 22.7479 27.0202 23.4112 27.6979 23.4112C27.8997 23.4112 28.0583 23.3535 28.1953 23.2381C28.4044 23.0651 28.5126 22.719 28.5126 22.236C28.5126 21.2988 28.0439 20.6715 27.359 20.6715ZM27.4888 23.7572C26.2632 23.7572 25.8234 22.856 25.8234 22.0125C25.8234 21.4213 26.0613 20.9671 26.5371 20.6427C26.876 20.4336 27.2797 20.3183 27.6402 20.3183C28.5774 20.3183 29.2335 20.9888 29.2335 21.9548C29.2335 22.6109 28.9739 23.1299 28.4765 23.4472C28.2386 23.6058 27.8276 23.7572 27.4888 23.7572H27.4888ZM14.6415 20.6715C14.49 20.6715 14.3531 20.7076 14.2521 20.7797C13.971 20.9527 13.8268 21.2988 13.8268 21.8034C13.8268 22.7479 14.3026 23.4112 14.9803 23.4112C15.1822 23.4112 15.3408 23.3535 15.4778 23.2381C15.6868 23.0651 15.795 22.719 15.795 22.236C15.795 21.2988 15.3335 20.6715 14.6415 20.6715ZM14.7713 23.7572C13.5456 23.7572 13.1058 22.856 13.1058 22.0125C13.1058 21.4213 13.3437 20.9671 13.8195 20.6427C14.1584 20.4336 14.5621 20.3183 14.9226 20.3183C15.8599 20.3183 16.5159 20.9888 16.5159 21.9548C16.5159 22.6109 16.2564 23.1299 15.7589 23.4472C15.5282 23.6058 15.1173 23.7572 14.7713 23.7572ZM6.53078 23.6851C6.51634 23.6635 6.50191 23.5986 6.50913 23.5193C6.50913 23.4616 6.52356 23.4255 6.53078 23.4112C6.68214 23.3895 6.76147 23.3679 6.84795 23.3463C6.99216 23.3102 7.04983 23.2309 7.05705 23.0507C7.0787 22.6181 7.0787 21.7962 7.07149 21.2267V21.2122C7.07149 21.1474 7.07149 21.068 6.99216 21.0104C6.87682 20.9383 6.73982 20.8734 6.55958 20.8229C6.49469 20.8013 6.45145 20.7652 6.45867 20.722C6.45867 20.6788 6.50191 20.6283 6.59567 20.6139C6.83358 20.5922 7.45354 20.4408 7.69867 20.3327C7.71311 20.3471 7.73476 20.3904 7.73476 20.4481L7.72754 20.5273C7.72032 20.6066 7.71311 20.7004 7.71311 20.7941C7.71311 20.8229 7.74198 20.8446 7.77078 20.8446C7.78521 20.8446 7.79965 20.8373 7.81408 20.8301C8.27547 20.4696 8.69361 20.3399 8.90987 20.3399C9.26319 20.3399 9.53712 20.5057 9.74623 20.8518C9.76059 20.8734 9.77503 20.8806 9.79668 20.8806C9.81112 20.8806 9.8327 20.8734 9.83992 20.859C10.2653 20.5345 10.6906 20.3399 10.9718 20.3399C11.6423 20.3399 12.0388 20.8373 12.0388 21.6808C12.0388 21.9188 12.0388 22.2288 12.0316 22.51C12.0316 22.7623 12.0244 22.993 12.0244 23.1588C12.0244 23.1948 12.0749 23.3102 12.1542 23.3318C12.2551 23.3823 12.3921 23.4039 12.5723 23.4328H12.5795C12.594 23.4832 12.5651 23.6707 12.5363 23.7067C12.493 23.7067 12.4281 23.7067 12.3561 23.6995C12.2191 23.6923 12.0244 23.6851 11.8081 23.6851C11.3611 23.6851 11.1304 23.6923 10.9069 23.7067C10.8925 23.6491 10.8853 23.4761 10.9069 23.4328C11.0367 23.4112 11.1016 23.3895 11.1809 23.3679C11.3251 23.3246 11.3611 23.2597 11.3684 23.0723C11.3684 22.9353 11.3972 21.7674 11.3539 21.4862C11.3107 21.1978 11.0944 20.859 10.6185 20.859C10.4383 20.859 10.1572 20.9311 9.88316 21.1401C9.86879 21.1546 9.85435 21.1906 9.85435 21.2122V21.2195C9.88316 21.3708 9.88316 21.5439 9.88316 21.8106V22.2792C9.88316 22.6037 9.87594 22.9065 9.88316 23.1372C9.88316 23.2958 9.97692 23.3318 10.0562 23.3607C10.0995 23.3679 10.1283 23.3751 10.1644 23.3823C10.2293 23.3967 10.2942 23.4112 10.3951 23.4328C10.4095 23.4616 10.4095 23.5553 10.3878 23.6346C10.3806 23.6779 10.3662 23.6995 10.359 23.7067C10.1139 23.6995 9.86157 23.6923 9.49388 23.6923C9.38575 23.6923 9.1983 23.6995 9.03965 23.6995C8.90987 23.6995 8.78731 23.7067 8.71526 23.7067C8.70805 23.6923 8.69361 23.6419 8.69361 23.5625C8.69361 23.4976 8.70805 23.4472 8.72248 23.4328C8.7585 23.4255 8.7873 23.4184 8.82339 23.4184C8.90987 23.4039 8.98198 23.3895 9.05408 23.3751C9.17665 23.3391 9.21989 23.2742 9.2271 23.1156C9.24876 22.7551 9.27034 21.7242 9.21989 21.4646C9.13341 21.0464 8.8955 20.8373 8.51338 20.8373C8.2899 20.8373 8.00869 20.9455 7.778 21.1186C7.74198 21.1474 7.71311 21.2195 7.71311 21.2844V21.7097C7.71311 22.2288 7.71311 22.8777 7.72032 23.1588C7.72754 23.2453 7.75634 23.3463 7.92221 23.3823C7.95823 23.3895 8.01591 23.4039 8.08801 23.4112L8.21779 23.4328C8.23223 23.4761 8.22501 23.6491 8.19614 23.7067C8.12403 23.7067 8.03756 23.6995 7.93658 23.6995C7.78521 23.6923 7.59054 23.6851 7.37429 23.6851C7.12194 23.6851 6.94171 23.6923 6.79749 23.6995C6.69658 23.6851 6.61725 23.6851 6.53078 23.6851Z" fill="#442D22"/>
<g clip-path="url(#clip3_114_859)">
<path fill-rule="evenodd" clip-rule="evenodd" d="M2.73853 25.4154L2.44295 25.3144C2.44295 25.3144 2.47904 23.8076 1.93833 23.6995C1.57786 23.2813 1.99601 5.96411 3.29368 23.6418C3.29368 23.6418 2.84673 23.8653 2.7674 24.2474C2.68086 24.6223 2.73853 25.4154 2.73853 25.4154Z" fill="white"/>
<path fill-rule="evenodd" clip-rule="evenodd" d="M2.73853 25.4154L2.44295 25.3144C2.44295 25.3144 2.47904 23.8076 1.93833 23.6995C1.57786 23.2813 1.99601 5.96411 3.29368 23.6418C3.29368 23.6418 2.84673 23.8653 2.7674 24.2474C2.68086 24.6223 2.73853 25.4154 2.73853 25.4154Z" fill="#A6A385"/>
<path fill-rule="evenodd" clip-rule="evenodd" d="M2.89723 23.959C2.89723 23.959 5.48542 22.2576 4.87982 18.7177C4.29588 16.1439 2.91881 15.3004 2.76745 14.976C2.60164 14.7453 2.44299 14.3416 2.44299 14.3416L2.55119 21.5005C2.55119 21.5078 2.32765 23.6922 2.89723 23.959Z" fill="white"/>
<path fill-rule="evenodd" clip-rule="evenodd" d="M2.89723 23.959C2.89723 23.959 5.48542 22.2576 4.87982 18.7177C4.29588 16.1439 2.91881 15.3004 2.76745 14.976C2.60164 14.7453 2.44299 14.3416 2.44299 14.3416L2.55119 21.5005C2.55119 21.5078 2.32765 23.6922 2.89723 23.959Z" fill="#499D4A"/>
<path fill-rule="evenodd" clip-rule="evenodd" d="M2.29157 24.0528C2.29157 24.0528 -0.138041 22.3946 0.00617527 19.4748C0.143106 16.5549 1.85899 15.1202 2.19059 14.8607C2.40692 14.63 2.41413 14.5434 2.42857 14.3127C2.57994 14.6372 2.55113 19.1648 2.57272 19.6982C2.63761 21.7529 2.45737 23.6635 2.29157 24.0528Z" fill="white"/>
<path fill-rule="evenodd" clip-rule="evenodd" d="M2.29157 24.0528C2.29157 24.0528 -0.138041 22.3946 0.00617527 19.4748C0.143106 16.5549 1.85899 15.1202 2.19059 14.8607C2.40692 14.63 2.41413 14.5434 2.42857 14.3127C2.57994 14.6372 2.55113 19.1648 2.57272 19.6982C2.63761 21.7529 2.45737 23.6635 2.29157 24.0528Z" fill="#58AA50"/>
</g>
</g>
</g>
</g>
<defs>
<clipPath id="clip0_114_859">
<rect width="40" height="11.4062" fill="white" transform="translate(0 14.2969)"/>
</clipPath>
<clipPath id="clip1_114_859">
<rect width="40" height="11.4062" fill="white" transform="translate(0 14.2969)"/>
</clipPath>
<clipPath id="clip2_114_859">
<rect width="40" height="11.4062" fill="white" transform="translate(0 14.2969)"/>
</clipPath>
<clipPath id="clip3_114_859">
<rect width="5" height="11.1719" fill="white" transform="translate(0 14.2969)"/>
</clipPath>
</defs>
</svg>
