<svg width="40" height="40" viewBox="0 0 40 40" fill="none" xmlns="http://www.w3.org/2000/svg">
<g clip-path="url(#clip0_114_712)">
<path d="M31.2756 31.159C32.6561 30.5751 34.302 30.3626 36.4258 30.4156C36.3661 30.0182 35.6071 29.5462 35.0512 29.2005C34.8645 29.0844 34.7007 28.9826 34.594 28.9025C33.7444 28.292 32.8418 27.6546 31.9392 27.0973C31.6485 26.9197 31.2299 26.7715 30.827 26.6288C30.5679 26.537 30.3153 26.4476 30.1074 26.3541C29.895 26.2675 29.6058 26.181 29.2935 26.0875C28.5517 25.8656 27.6799 25.6047 27.3996 25.2126C26.6777 24.2741 26.174 23.1393 25.6709 22.0061C25.6189 21.889 25.567 21.772 25.5148 21.6552C25.2515 21.0532 24.9585 20.4394 24.6639 19.8222C24.3349 19.1328 24.0038 18.439 23.7096 17.7527C23.5814 17.4731 23.4839 17.2088 23.388 16.9486C23.2653 16.6159 23.1451 16.29 22.9663 15.9475C21.0282 12.2044 18.1613 9.07166 14.6835 6.86828C13.5418 6.15147 12.2678 5.48762 10.8606 5.03645C10.4309 4.90759 9.9549 4.88685 9.47417 4.8659C9.0639 4.84803 8.65022 4.83 8.25903 4.74449H7.70144C7.37956 4.65508 7.09381 4.39697 6.82799 4.15687C6.69921 4.04055 6.57511 3.92846 6.45385 3.84182C5.63079 3.28439 4.80789 2.91249 3.8256 2.51446C3.48053 2.35524 2.49825 1.98351 2.15317 2.27563C1.94065 2.32876 1.83457 2.40837 1.78144 2.62071C1.56909 2.93931 1.75513 3.41713 1.88769 3.70908C2.15083 4.27046 2.48356 4.68116 2.82452 5.10201C2.99954 5.31805 3.17674 5.53676 3.3478 5.77991C3.4295 5.89523 3.51468 6.01315 3.60129 6.13306C3.99313 6.67554 4.41424 7.25855 4.67516 7.82392C5.04336 8.61708 5.3058 9.45556 5.56728 10.291C5.79594 11.0215 6.02386 11.7497 6.32113 12.4432C6.55995 13.0008 6.93168 13.6378 7.27676 14.1423C7.38499 14.2899 7.52608 14.4229 7.66892 14.5576C7.91138 14.7862 8.15885 15.0195 8.25904 15.3369C8.51721 15.7672 8.04323 16.9992 7.75524 17.7478C7.68783 17.923 7.63061 18.0718 7.59536 18.1775C6.90503 20.3543 7.03777 23.3807 7.83419 25.2655C7.86265 25.3319 7.8909 25.3994 7.91936 25.4674C8.20944 26.1602 8.5208 26.9038 9.29429 27.0973C9.31835 27.0733 9.32065 27.0656 9.32582 27.0619C9.33207 27.0574 9.3425 27.0588 9.40055 27.0442C9.43939 26.7391 9.47245 26.4362 9.50504 26.1377C9.62838 25.0076 9.74507 23.9386 10.1438 23.0356C10.3338 22.5694 10.6473 22.193 10.9528 21.8261C11.117 21.629 11.2789 21.4346 11.4181 21.2305C11.5866 21.3315 11.6481 21.5608 11.7113 21.7964C11.7477 21.932 11.7847 22.0696 11.8429 22.1861C11.868 22.2459 11.8932 22.306 11.9185 22.3666C12.2423 23.1397 12.5906 23.9714 12.9844 24.7346C13.8605 26.4337 14.8429 28.0794 15.9578 29.5662C16.3293 30.0971 16.8604 30.6812 17.3382 31.159C17.4109 31.2226 17.4867 31.2769 17.5613 31.3303C17.7047 31.4331 17.844 31.5328 17.9488 31.69H18.0019V31.7698C17.4979 31.5849 17.1109 31.1874 16.7331 30.7993C16.5139 30.5742 16.2979 30.3523 16.0638 30.1769C14.8692 29.2742 13.4358 27.9202 12.6127 26.6195C12.3535 26.0612 12.0793 25.5177 11.8013 24.9668C11.7093 24.7843 11.6168 24.6011 11.5243 24.4161C11.5243 24.4161 11.5245 24.3895 11.5243 24.363C11.4229 24.4983 11.4076 24.6335 11.3893 24.7963C11.3789 24.889 11.3674 24.9906 11.3385 25.1063C11.2401 25.4848 11.1913 25.8784 11.1442 26.2588C11.0261 27.2125 10.9182 28.0831 10.0642 28.4247C8.71038 28.9823 7.70145 27.5219 7.27676 26.8583C5.92292 24.655 5.55119 20.9383 6.50682 17.9385C6.58076 17.7076 6.63219 17.4607 6.68349 17.2144C6.77962 16.7528 6.87525 16.2937 7.11755 15.9475C7.06428 15.6284 6.88093 15.4632 6.70175 15.3017C6.61257 15.2213 6.52443 15.1418 6.45387 15.0448C6.08214 14.5405 5.7637 13.9564 5.47158 13.399C5.04712 12.5704 4.71512 11.6186 4.39336 10.6962C4.29244 10.4069 4.19253 10.1204 4.09109 9.84161C4.00047 9.60865 3.94145 9.37561 3.88321 9.14568C3.82199 8.904 3.76165 8.66575 3.6664 8.43464C3.41545 7.89088 2.99989 7.34722 2.61408 6.8425C2.51009 6.70644 2.40825 6.57322 2.31239 6.44358C2.20897 6.29517 2.07204 6.12315 1.91939 5.93139C1.17087 4.99108 0.0445571 3.57619 0.63995 2.1429C1.75497 -0.591441 5.65762 1.47905 7.17051 2.43485C7.3218 2.53212 7.48189 2.67333 7.64719 2.81914C7.88804 3.03159 8.13994 3.25379 8.39179 3.36401C8.7237 3.37733 9.05565 3.39724 9.38758 3.41715C9.71937 3.43704 10.0511 3.45694 10.3828 3.47026C10.4915 3.49569 10.5996 3.52072 10.707 3.54559C11.8327 3.80626 12.8841 4.04976 13.7809 4.55863C18.347 7.24001 21.3204 9.97435 24.0547 14.4874C24.4259 15.0947 24.6792 15.7343 24.9371 16.3857C25.085 16.7591 25.2345 17.1365 25.4085 17.5138C26.0722 19.0535 26.8158 20.6727 27.5854 22.133C27.6822 22.3265 27.7727 22.5264 27.8634 22.7266C28.0961 23.2404 28.33 23.7568 28.674 24.1771C28.7976 24.3538 29.0742 24.4481 29.3393 24.5385C29.4725 24.5839 29.6027 24.6283 29.7092 24.6816C30.0526 24.8584 30.4245 25.019 30.7994 25.1809C31.381 25.4319 31.9697 25.6861 32.4702 26.009C34.0099 26.9646 35.4967 28.1059 36.8505 29.2743C37.1242 29.5191 37.351 29.8186 37.5775 30.1178C37.7685 30.37 37.9593 30.6219 38.1779 30.8406V31.0794C37.7532 31.2122 37.3283 31.3449 36.9036 31.4512C36.4415 31.5699 36.0057 31.6165 35.5733 31.6627C35.1362 31.7094 34.7026 31.7557 34.2489 31.8759C34.1917 31.8922 34.1331 31.9091 34.0734 31.9264C33.5508 32.0771 32.9412 32.253 32.4171 32.3007C32.4435 32.3272 32.4702 32.3537 32.4702 32.3537C32.7261 33.082 33.8141 33.7082 34.7058 34.2214C35.0166 34.4003 35.3036 34.5655 35.5231 34.7164C36.5585 35.4597 37.5142 36.3624 38.2841 37.3977C38.4165 37.53 38.5489 37.6558 38.6812 37.7815C38.8144 37.908 38.9475 38.0345 39.0805 38.1676C39.1704 38.2961 39.2293 38.4433 39.2871 38.5881C39.3488 38.7423 39.4093 38.8939 39.5052 39.0171V39.0967C39.273 39.0138 39.1133 38.8479 38.955 38.6833C38.8599 38.5845 38.7653 38.4862 38.6557 38.4066C38.4056 38.2361 38.1557 38.051 37.9057 37.8659C37.5717 37.6185 37.2378 37.3712 36.9036 37.1588C36.3899 36.8344 35.8349 36.5788 35.2772 36.3219C34.7396 36.0743 34.1995 35.8256 33.6913 35.5129C33.1074 35.1411 32.5498 34.7164 31.9924 34.2918C31.4879 33.92 30.9306 33.2031 30.6119 32.6723C30.5315 32.5461 30.481 32.41 30.4323 32.2789C30.3684 32.1068 30.3077 31.9434 30.187 31.8227C30.2268 31.4456 30.5931 31.3504 30.9419 31.2598C31.0595 31.2292 31.1751 31.1992 31.2756 31.159Z" fill="#00546B"/>
<path d="M8.25892 7.47883C8.57752 7.39922 8.89595 7.34592 9.34729 7.34592C9.43143 7.43013 9.53643 7.50178 9.64246 7.57413C9.80402 7.68438 9.96797 7.79626 10.0641 7.95665C10.1231 8.03922 10.1611 8.1218 10.1991 8.20438C10.2466 8.30766 10.2941 8.41095 10.3827 8.51424C10.3827 9.15127 10.197 9.57596 9.82511 9.8416C9.82511 9.8416 9.79863 9.86808 9.77215 9.89473C9.66605 9.68262 9.56663 9.4705 9.46722 9.2584C9.36753 9.04568 9.26784 8.83298 9.16142 8.62033C9.05805 8.47564 8.93861 8.343 8.81875 8.20989C8.6308 8.00116 8.44181 7.79127 8.31205 7.53196H8.25892V7.47883Z" fill="#00546B"/>
</g>
<defs>
<clipPath id="clip0_114_712">
<rect width="40" height="40" fill="white"/>
</clipPath>
</defs>
</svg>
