<svg width="40" height="40" viewBox="0 0 40 40" fill="none" xmlns="http://www.w3.org/2000/svg">
<path fill-rule="evenodd" clip-rule="evenodd" d="M20.0354 39.4588C19.4981 39.4588 18.9966 39.3155 18.531 39.0648L13.7669 36.235C13.0505 35.841 13.4087 35.6977 13.6236 35.626C14.5908 35.3037 14.7699 35.232 15.7728 34.6589C15.8803 34.5873 16.0236 34.6231 16.131 34.6947L19.7847 36.8797C19.928 36.9514 20.1071 36.9514 20.2145 36.8797L34.5067 28.6053C34.65 28.5337 34.7216 28.3904 34.7216 28.2113V11.6983C34.7216 11.5192 34.65 11.3759 34.5067 11.3043L20.2145 3.0657C20.0712 2.99406 19.8921 2.99406 19.7847 3.0657L5.49251 11.3043C5.34923 11.3759 5.27759 11.555 5.27759 11.6983V28.2113C5.27759 28.3546 5.34923 28.5337 5.49251 28.6053L9.39689 30.862C11.5103 31.9366 12.8356 30.6829 12.8356 29.4292V13.1311C12.8356 12.9162 13.0147 12.7013 13.2654 12.7013H15.0923C15.3072 12.7013 15.5221 12.8804 15.5221 13.1311V29.4292C15.5221 32.259 13.9818 33.9067 11.2953 33.9067C10.4715 33.9067 9.82673 33.9067 7.99991 33.0112L4.23881 30.862C3.30749 30.3247 2.73438 29.3217 2.73438 28.2471V11.7341C2.73438 10.6595 3.30749 9.65657 4.23881 9.11927L18.531 0.844859C19.4265 0.34338 20.6444 0.34338 21.5399 0.844859L35.832 9.11927C36.7633 9.65657 37.3365 10.6595 37.3365 11.7341V28.2471C37.3365 29.3217 36.7633 30.3247 35.832 30.862L21.5399 39.1364C21.0742 39.3513 20.5369 39.4588 20.0354 39.4588ZM24.4413 28.1038C18.1728 28.1038 16.8833 25.2382 16.8833 22.8025C16.8833 22.5876 17.0624 22.3727 17.3131 22.3727H19.1757C19.3907 22.3727 19.5698 22.5159 19.5698 22.7309C19.8563 24.6293 20.6802 25.5606 24.4771 25.5606C27.486 25.5606 28.7755 24.88 28.7755 23.2681C28.7755 22.3368 28.4173 21.6563 23.7249 21.1906C19.8205 20.7966 17.3847 19.9369 17.3847 16.8206C17.3847 13.9191 19.8205 12.1998 23.904 12.1998C28.4889 12.1998 30.7456 13.7759 31.0321 17.2146C31.0321 17.322 30.9963 17.4295 30.9247 17.537C30.853 17.6086 30.7456 17.6802 30.6381 17.6802H28.7755C28.5964 17.6802 28.4173 17.537 28.3815 17.3579C27.9516 15.3878 26.8412 14.743 23.904 14.743C20.6085 14.743 20.2145 15.8892 20.2145 16.7489C20.2145 17.7877 20.6802 18.1101 25.1218 18.6832C29.5277 19.2563 31.6053 20.0802 31.6053 23.1607C31.5694 26.3128 28.9904 28.1038 24.4413 28.1038Z" fill="#539E43"/>
</svg>
