<svg width="40" height="40" viewBox="0 0 40 40" fill="none" xmlns="http://www.w3.org/2000/svg">
<path d="M0 14.4762C0 9.40905 0 6.87548 0.986131 4.94009C1.85356 3.23767 3.23767 1.85356 4.94009 0.986131C6.87548 0 9.40905 0 14.4762 0H25.5238C30.591 0 33.1245 0 35.0599 0.986131C36.7623 1.85356 38.1464 3.23767 39.0139 4.94009C40 6.87548 40 9.40905 40 14.4762V25.5238C40 30.591 40 33.1245 39.0139 35.0599C38.1464 36.7623 36.7623 38.1464 35.0599 39.0139C33.1245 40 30.591 40 25.5238 40H14.4762C9.40905 40 6.87548 40 4.94009 39.0139C3.23767 38.1464 1.85356 36.7623 0.986131 35.0599C0 33.1245 0 30.591 0 25.5238V14.4762Z" fill="#001E36"/>
<path d="M8.57144 29.3088V11.7191C8.57144 11.5994 8.62144 11.531 8.73811 11.531C10.4604 11.531 12.182 11.4285 13.9048 11.4285C16.7002 11.4285 19.7271 12.3843 20.7881 15.3088C21.0381 16.0268 21.1714 16.7618 21.1714 17.531C21.1714 19.0011 20.8381 20.2148 20.1714 21.1721C18.3092 23.8461 15.0814 23.8045 12.1881 23.8045V29.2917C12.2107 29.4542 12.0723 29.531 11.9381 29.531H8.77144C8.63811 29.531 8.57144 29.4627 8.57144 29.3088ZM12.2048 14.8302V20.5738C13.352 20.6578 14.5525 20.6669 15.6548 20.3003C16.8717 19.9492 17.5381 18.8958 17.5381 17.6336C17.5719 16.558 16.9858 15.526 15.9881 15.1379C14.8991 14.6851 13.3803 14.6579 12.2048 14.8302Z" fill="#31A8FF"/>
<path d="M31.5667 19.439C31.0624 19.1732 30.5253 18.9788 29.9701 18.861C29.2566 18.6931 26.4426 18.1052 26.4415 19.5766C26.4665 20.3981 27.7704 20.8005 28.3466 21.0352C30.3693 21.7296 32.6581 22.9709 32.6131 25.4662C32.675 28.5725 29.6653 29.8143 27.0855 29.8146C25.7424 29.8285 24.3433 29.6204 23.1141 29.0439C22.9968 28.9818 22.9213 28.849 22.9263 28.7137V25.7414C22.9131 25.6222 23.041 25.5181 23.141 25.6038C24.3453 26.3321 25.7728 26.6857 27.166 26.7046C27.781 26.7046 28.9999 26.645 28.9907 25.7414C28.9907 24.8742 27.5325 24.4755 26.9513 24.2552C26.1087 23.9544 25.3099 23.5378 24.5765 23.0168C23.5517 22.2858 22.9088 21.1137 22.9263 19.8243C22.9203 16.8994 25.6907 15.5866 28.1857 15.586C29.352 15.5764 30.6045 15.6628 31.6903 16.1364C31.8464 16.1824 31.8788 16.3468 31.8781 16.4942V19.2739C31.888 19.4464 31.6964 19.5052 31.5667 19.439Z" fill="#31A8FF"/>
</svg>
