<svg width="42" height="40" viewBox="0 0 42 40" fill="none" xmlns="http://www.w3.org/2000/svg">
<g clip-path="url(#clip0_108_262)">
<path d="M20.8196 0.15625C10.4796 0.156251 11.1253 4.54925 11.1253 4.54925L11.1368 9.10035H21.004V10.4668H7.2176C7.2176 10.4668 0.601044 9.73167 0.601044 19.953C0.601043 30.1743 6.37612 29.8118 6.37612 29.8118H9.82273V25.0687C9.82273 25.0687 9.63695 19.4109 15.5056 19.4109H25.2921C25.2921 19.4109 30.7905 19.498 30.7905 14.2048V5.45269C30.7905 5.45269 31.6254 0.15625 20.8196 0.15625ZM15.3788 3.21667C16.3605 3.21667 17.154 3.99402 17.154 4.9558C17.154 5.91758 16.3605 6.69493 15.3788 6.69493C14.3971 6.69493 13.6036 5.91758 13.6036 4.9558C13.6036 3.99402 14.3971 3.21667 15.3788 3.21667Z" fill="url(#paint0_linear_108_262)"/>
<path d="M21.1132 39.8522C31.4532 39.8522 30.8075 35.4592 30.8075 35.4592L30.796 30.9081H20.9288V29.5417H34.7152C34.7152 29.5417 41.3318 30.2768 41.3318 20.0555C41.3318 9.83419 35.5567 10.1967 35.5567 10.1967H32.1101V14.9397C32.1101 14.9397 32.2959 20.5976 26.4272 20.5976H16.6407C16.6407 20.5976 11.1423 20.5105 11.1423 25.8037V34.5558C11.1423 34.5558 10.3075 39.8522 21.1132 39.8522ZM26.554 36.7918C25.5723 36.7918 24.7789 36.0145 24.7789 35.0527C24.7789 34.0909 25.5723 33.3135 26.554 33.3135C27.5358 33.3135 28.3292 34.0909 28.3292 35.0527C28.3292 36.0145 27.5358 36.7918 26.554 36.7918Z" fill="url(#paint1_linear_108_262)"/>
</g>
<defs>
<linearGradient id="paint0_linear_108_262" x1="4.51535" y1="3.72679" x2="24.2901" y2="23.71" gradientUnits="userSpaceOnUse">
<stop stop-color="#387EB8"/>
<stop offset="1" stop-color="#366994"/>
</linearGradient>
<linearGradient id="paint1_linear_108_262" x1="16.9047" y1="16.2983" x2="38.1608" y2="36.8087" gradientUnits="userSpaceOnUse">
<stop stop-color="#FFE052"/>
<stop offset="1" stop-color="#FFC331"/>
</linearGradient>
<clipPath id="clip0_108_262">
<rect width="40.829" height="40" fill="white" transform="translate(0.601044)"/>
</clipPath>
</defs>
</svg>
