<svg width="44" height="46" viewBox="0 0 44 46" fill="none" xmlns="http://www.w3.org/2000/svg">
<path d="M21.6832 31.1389C32.5539 31.1389 41.3664 27.5278 41.3664 23.0731C41.3664 18.6185 32.5539 15.0073 21.6832 15.0073C10.8125 15.0073 1.99998 18.6185 1.99998 23.0731C1.99998 27.5278 10.8125 31.1389 21.6832 31.1389Z" stroke="#61DAFB" stroke-width="3.7447"/>
<path d="M15.1746 27.1061C20.61 37.2099 27.9302 43.5951 31.5248 41.3677C35.1193 39.1404 33.6271 29.1441 28.1917 19.0403C22.7563 8.93648 15.4361 2.55132 11.8416 4.77863C8.24701 7.00594 9.73928 17.0023 15.1746 27.1061Z" stroke="#61DAFB" stroke-width="3.7447"/>
<path d="M15.1747 19.0403C9.73931 29.1441 8.24704 39.1404 11.8416 41.3677C15.4362 43.595 22.7564 37.2099 28.1917 27.1061C33.6271 17.0023 35.1194 7.00593 31.5248 4.77862C27.9303 2.55131 20.6101 8.93647 15.1747 19.0403Z" stroke="#61DAFB" stroke-width="3.7447"/>
</svg>
