<svg width="24" height="25" viewBox="0 0 24 25" fill="none" xmlns="http://www.w3.org/2000/svg">
<path d="M16.2235 14.483C16.3028 13.8285 16.3623 13.174 16.3623 12.4997C16.3623 11.8253 16.3028 11.1708 16.2235 10.5163H19.5753C19.734 11.151 19.8332 11.8154 19.8332 12.4997C19.8332 13.1839 19.734 13.8483 19.5753 14.483H16.2235ZM14.4682 19.9967C15.0632 18.8959 15.5194 17.7059 15.8367 16.4663H18.7622C17.8102 18.1026 16.2929 19.3719 14.4682 19.9967ZM14.2203 14.483H9.57932C9.48015 13.8285 9.42065 13.174 9.42065 12.4997C9.42065 11.8253 9.48015 11.1609 9.57932 10.5163H14.2203C14.3096 11.1609 14.379 11.8253 14.379 12.4997C14.379 13.174 14.3096 13.8285 14.2203 14.483ZM11.8998 20.3933C11.0767 19.2033 10.4123 17.8844 10.0057 16.4663H13.7939C13.3873 17.8844 12.7229 19.2033 11.8998 20.3933ZM7.93315 8.53301H5.03749C5.97957 6.88684 7.50674 5.61751 9.32149 5.00267C8.72649 6.10342 8.28024 7.29342 7.93315 8.53301ZM5.03749 16.4663H7.93315C8.28024 17.7059 8.72649 18.8959 9.32149 19.9967C7.50674 19.3719 5.97957 18.1026 5.03749 16.4663ZM4.22432 14.483C4.06565 13.8483 3.96649 13.1839 3.96649 12.4997C3.96649 11.8154 4.06565 11.151 4.22432 10.5163H7.57615C7.49682 11.1708 7.43732 11.8253 7.43732 12.4997C7.43732 13.174 7.49682 13.8285 7.57615 14.483H4.22432ZM11.8998 4.59609C12.7229 5.78609 13.3873 7.11492 13.7939 8.53301H10.0057C10.4123 7.11492 11.0767 5.78609 11.8998 4.59609ZM18.7622 8.53301H15.8367C15.5194 7.29342 15.0632 6.10342 14.4682 5.00267C16.2929 5.62742 17.8102 6.88684 18.7622 8.53301ZM11.8998 2.58301C6.4159 2.58301 1.98315 7.04551 1.98315 12.4997C1.98315 15.1297 3.02794 17.6521 4.88768 19.5118C5.80853 20.4327 6.90173 21.1631 8.10488 21.6615C9.30802 22.1598 10.5975 22.4163 11.8998 22.4163C14.5299 22.4163 17.0522 21.3716 18.912 19.5118C20.7717 17.6521 21.8165 15.1297 21.8165 12.4997C21.8165 11.1974 21.56 9.90788 21.0616 8.70473C20.5633 7.50158 19.8328 6.40838 18.912 5.48753C17.9911 4.56668 16.8979 3.83623 15.6948 3.33787C14.4916 2.83951 13.2021 2.58301 11.8998 2.58301Z" fill="black"/>
</svg>
